# xmcd
#
# Track frame offsets: 
#        182
#        12755
#        25607
#        37075
#        48955
#        61085
#        74250
#        87307
#        101147
#        115897
#        130175
#        140582
#        149822
#        163090
#        175472
#        188497
#        200892
#        212257
#        225900
#        234890
#        245437
#        259110
#
# Disc length: 3645 seconds
#
# Revision: 6
# Processed by: cddbd v1.5.2PL0 Copyright (c) Steve Scherf et al.
# Submitted via: ExactAudioCopy v0.99pb4
#
DISCID=330e3b16
DTITLE=Various Artist - Rhythm And Blues - 1965
DYEAR=1991
DGENRE=R&B
TTITLE0=James Brown - I Got You (I Feel Good)
TTITLE1=Fontella Bass - Rescue Me
TTITLE2=Wilson Pickett - In The Midnight Hour
TTITLE3=Little Milton - We're Gonna Make It
TTITLE4=Impressions - People Get Ready
TTITLE5=Miracles - The Tracks Of My Tears
TTITLE6=Supremes - Stop In The Name Of Love
TTITLE7=Junior Walker And The All Stars - Shotgun
TTITLE8=Ramsey Lewis Trio - The In Crowd
TTITLE9=Joe Tex - Hold What You've Got
TTITLE10=Little Anthony And The Imperials - Hurt So Bad
TTITLE11=James Brown - Papa's Got A Brand New Bag
TTITLE12=Martha And The Vandellas - Nowhere To Run
TTITLE13=Four Tops - I Can't Help Myself (Sugar Pie Honeybunch)
TTITLE14=Lee Dorsey - Ride Your Pony
TTITLE15=Temptations - My Girl
TTITLE16=Barbara Lewis - Baby I'm Yours
TTITLE17=Marvin Gaye - Ain't That Peculiar
TTITLE18=Solomon Burke - Got To Get You Off My Mind
TTITLE19=Fred Hughes - Oo Wee Baby I Love You
TTITLE20=Billy Stewart - I Do Love You
TTITLE21=Otis Redding - I've Been Loving You Too Long (To Stop Now)
EXTD=Time-Life Music RHD-07 OPCD-2639 YEAR: 1965
EXTT0=
EXTT1=
EXTT2=
EXTT3=
EXTT4=
EXTT5=
EXTT6=
EXTT7=
EXTT8=
EXTT9=
EXTT10=
EXTT11=
EXTT12=
EXTT13=
EXTT14=
EXTT15=
EXTT16=
EXTT17=
EXTT18=
EXTT19=
EXTT20=
EXTT21=
PLAYORDER=
